<svg xmlns="http://www.w3.org/2000/svg" width="239.13" height="209.462" viewBox="0 0 239.13 209.462">
  <g id="Group_4" data-name="Group 4" transform="translate(-492.5 -450.269)">
    <g id="Group_1" data-name="Group 1">
      <path id="Path_1" data-name="Path 1" d="M570.455,562.55V545.335L492.5,581.557v13.962l77.955,36.222V614.527L511.5,588.7v-.325Z" fill="#fff"/>
      <path id="Path_2" data-name="Path 2" d="M598.824,596.608l-12.01,35.133h16.829l12.017-35.133Zm-16.286,47.641L577.731,658.3l16.339,1.434,5.3-15.482ZM637.26,533.44,619.936,584.1h-16.83l19.068-55.778a6.682,6.682,0,0,1,8.391-4.192l2.442.795A6.681,6.681,0,0,1,637.26,533.44Z" fill="#d85248"/>
      <path id="Path_3" data-name="Path 3" d="M653.675,545.335V562.55l60.249,25.826v.325l-60.249,25.826v17.214L731.63,596.01V581.066Z" fill="#fff"/>
      <path id="Path_4" data-name="Path 4" d="M650.063,453.618c-9.77,4.97-19.47,18.342-22.411,34.343l-7.3,3.713c-5.273,2.682-6.293,8.156-6.257,13.377l.048,6.988,13.163-6.7,10.311,3.358,10.312,3.359,6.7,13.162,4.154-5.619c3.1-4.2,5.5-9.223,2.82-14.5l-3.713-7.3c6.99-14.551,7.079-30.926,2.226-40.723-.039-.077-.077-.154-.116-.23l-3.35-6.586Zm-.052,28.7a5.112,5.112,0,1,1,2.239-6.874A5.112,5.112,0,0,1,650.011,482.323Z" fill="#f166fa"/>
    </g>
  </g>
</svg>
